<svg xmlns="http://www.w3.org/2000/svg" style="display: none;">

  <symbol id="icon-mirror" viewBox="0 0 16 16">
   <path fill-rule="evenodd" d="M7 2.5a.5.5 0 0 0-.939-.24l-6 11A.5.5 0 0 0 .5 14h6a.5.5 0 0 0 .5-.5zm2.376-.484a.5.5 0 0 1 .563.245l6 11A.5.5 0 0 1 15.5 14h-6a.5.5 0 0 1-.5-.5v-11a.5.5 0 0 1 .376-.484M10 4.46V13h4.658z"/>
  </symbol>
  <symbol id="icon-settings" viewBox="0 0 24 24" fill="none">
    <path fill-rule="evenodd" d="M12 15C13.6569 15 15 13.6569 15 12C15 10.3431 13.6569 9 12 9C10.3431 9 9 10.3431 9 12C9 13.6569 10.3431 15 12 15Z"  stroke-width="1.5" stroke-miterlimit="10" stroke-linecap="round" stroke-linejoin="round"/>
    <path fill-rule="evenodd" d="M2 12.8799V11.1199C2 10.0799 2.85 9.21994 3.9 9.21994C5.71 9.21994 6.45 7.93994 5.54 6.36994C5.02 5.46994 5.33 4.29994 6.24 3.77994L7.97 2.78994C8.76 2.31994 9.78 2.59994 10.25 3.38994L10.36 3.57994C11.26 5.14994 12.74 5.14994 13.65 3.57994L13.76 3.38994C14.23 2.59994 15.25 2.31994 16.04 2.78994L17.77 3.77994C18.68 4.29994 18.99 5.46994 18.47 6.36994C17.56 7.93994 18.3 9.21994 20.11 9.21994C21.15 9.21994 22.01 10.0699 22.01 11.1199V12.8799C22.01 13.9199 21.16 14.7799 20.11 14.7799C18.3 14.7799 17.56 16.0599 18.47 17.6299C18.99 18.5399 18.68 19.6999 17.77 20.2199L16.04 21.2099C15.25 21.6799 14.23 21.3999 13.76 20.6099L13.65 20.4199C12.75 18.8499 11.27 18.8499 10.36 20.4199L10.25 20.6099C9.78 21.3999 8.76 21.6799 7.97 21.2099L6.24 20.2199C5.33 19.6999 5.02 18.5299 5.54 17.6299C6.45 16.0599 5.71 14.7799 3.9 14.7799C2.85 14.7799 2 13.9199 2 12.8799Z"  stroke-width="1.5" stroke-miterlimit="10" stroke-linecap="round" stroke-linejoin="round"/>
  </symbol>
  <symbol id="icon-timer" viewBox="0 0 24 24" fill="none">
    <path d="M20.75 13.25C20.75 18.08 16.83 22 12 22C7.17 22 3.25 18.08 3.25 13.25C3.25 8.42 7.17 4.5 12 4.5C16.83 4.5 20.75 8.42 20.75 13.25Z"  stroke-width="1.5" stroke-linecap="round" stroke-linejoin="round"/>
    <path d="M12 8V13" stroke-width="1.5" stroke-linecap="round" stroke-linejoin="round"/>
    <path d="M9 2H15"  stroke-width="1.5" stroke-miterlimit="10" stroke-linecap="round" stroke-linejoin="round"/>
  </symbol>
  <symbol id="icon-grid" viewBox="0 0 24 24" fill="none">
    <svg width="24" height="24" viewBox="0 0 24 24" fill="none" xmlns="http://www.w3.org/2000/svg">
    <path d="M9 22H15C20 22 22 20 22 15V9C22 4 20 2 15 2H9C4 2 2 4 2 9V15C2 20 4 22 9 22Z" stroke-width="1.5" stroke-linecap="round" stroke-linejoin="round"/>
    <path d="M2.03003 8.5H22"  stroke-width="1.5" stroke-linecap="round" stroke-linejoin="round"/>
    <path d="M2.03003 15.5H22" stroke-width="1.5" stroke-linecap="round" stroke-linejoin="round"/>
    <path d="M8.51001 21.99V2.00999" stroke-width="1.5" stroke-linecap="round" stroke-linejoin="round"/>
    <path d="M15.51 21.99V2.00999" stroke-width="1.5" stroke-linecap="round" stroke-linejoin="round"/>
    </svg>

  </symbol>


</svg>


</svg>
