<svg xmlns="http://www.w3.org/2000/svg" style="display: none;">

  <symbol id="icon-mirror" viewBox="0 0 16 16">
   <path fill-rule="evenodd" d="M7 2.5a.5.5 0 0 0-.939-.24l-6 11A.5.5 0 0 0 .5 14h6a.5.5 0 0 0 .5-.5zm2.376-.484a.5.5 0 0 1 .563.245l6 11A.5.5 0 0 1 15.5 14h-6a.5.5 0 0 1-.5-.5v-11a.5.5 0 0 1 .376-.484M10 4.46V13h4.658z"/>
  </symbol>
   <symbol id="icon-moon" viewBox="0 0 16 16">
      <path fill-rule="evenodd" d="M6 .278a.77.77 0 0 1 .08.858 7.2 7.2 0 0 0-.878 3.46c0 4.021 3.278 7.277 7.318 7.277q.792-.001 1.533-.16a.79.79 0 0 1 .81.316.73.73 0 0 1-.031.893A8.35 8.35 0 0 1 8.344 16C3.734 16 0 12.286 0 7.71 0 4.266 2.114 1.312 5.124.06A.75.75 0 0 1 6 .278M4.858 1.311A7.27 7.27 0 0 0 1.025 7.71c0 4.02 3.279 7.276 7.319 7.276a7.32 7.32 0 0 0 5.205-2.162q-.506.063-1.029.063c-4.61 0-8.343-3.714-8.343-8.29 0-1.167.242-2.278.681-3.286"/>
  </symbol>
   <symbol id="icon-start" viewBox="0 0 16 16">
      <path fill-rule="evenodd" d="m12.14 8.753-5.482 4.796c-.646.566-1.658.106-1.658-.753V3.204a1 1 0 0 1 1.659-.753l5.48 4.796a1 1 0 0 1 0 1.506z"/>
  </symbol>
   <symbol id="icon-check" viewBox="0 0 16 16">
     <path d="M10.97 4.97a.75.75 0 0 1 1.07 1.05l-3.99 4.99a.75.75 0 0 1-1.08.02L4.324 8.384a.75.75 0 1 1 1.06-1.06l2.094 2.093 3.473-4.425z"/>
  </symbol>
   <symbol id="icon-reset" viewBox="0 0 16 16">
    <path fill-rule="evenodd" d="M8 3a5 5 0 1 0 4.546 2.914.5.5 0 0 1 .908-.417A6 6 0 1 1 8 2z"/>
  <path d="M8 4.466V.534a.25.25 0 0 1 .41-.192l2.36 1.966c.12.1.12.284 0 .384L8.41 4.658A.25.25 0 0 1 8 4.466"/>
  </symbol>
   <symbol id="icon-sun" viewBox="0 0 16 16">
      <path fill-rule="evenodd" d="M8 11a3 3 0 1 1 0-6 3 3 0 0 1 0 6m0 1a4 4 0 1 0 0-8 4 4 0 0 0 0 8M8 0a.5.5 0 0 1 .5.5v2a.5.5 0 0 1-1 0v-2A.5.5 0 0 1 8 0m0 13a.5.5 0 0 1 .5.5v2a.5.5 0 0 1-1 0v-2A.5.5 0 0 1 8 13m8-5a.5.5 0 0 1-.5.5h-2a.5.5 0 0 1 0-1h2a.5.5 0 0 1 .5.5M3 8a.5.5 0 0 1-.5.5h-2a.5.5 0 0 1 0-1h2A.5.5 0 0 1 3 8m10.657-5.657a.5.5 0 0 1 0 .707l-1.414 1.415a.5.5 0 1 1-.707-.708l1.414-1.414a.5.5 0 0 1 .707 0m-9.193 9.193a.5.5 0 0 1 0 .707L3.05 13.657a.5.5 0 0 1-.707-.707l1.414-1.414a.5.5 0 0 1 .707 0m9.193 2.121a.5.5 0 0 1-.707 0l-1.414-1.414a.5.5 0 0 1 .707-.707l1.414 1.414a.5.5 0 0 1 0 .707M4.464 4.465a.5.5 0 0 1-.707 0L2.343 3.05a.5.5 0 1 1 .707-.707l1.414 1.414a.5.5 0 0 1 0 .708"/>
  </symbol>
  <symbol id="icon-settings" viewBox="0 0 24 24" fill="none">
    <path fill-rule="evenodd" d="M12 15C13.6569 15 15 13.6569 15 12C15 10.3431 13.6569 9 12 9C10.3431 9 9 10.3431 9 12C9 13.6569 10.3431 15 12 15Z"  stroke-width="1.5" stroke-miterlimit="10" stroke-linecap="round" stroke-linejoin="round"/>
    <path fill-rule="evenodd" d="M2 12.8799V11.1199C2 10.0799 2.85 9.21994 3.9 9.21994C5.71 9.21994 6.45 7.93994 5.54 6.36994C5.02 5.46994 5.33 4.29994 6.24 3.77994L7.97 2.78994C8.76 2.31994 9.78 2.59994 10.25 3.38994L10.36 3.57994C11.26 5.14994 12.74 5.14994 13.65 3.57994L13.76 3.38994C14.23 2.59994 15.25 2.31994 16.04 2.78994L17.77 3.77994C18.68 4.29994 18.99 5.46994 18.47 6.36994C17.56 7.93994 18.3 9.21994 20.11 9.21994C21.15 9.21994 22.01 10.0699 22.01 11.1199V12.8799C22.01 13.9199 21.16 14.7799 20.11 14.7799C18.3 14.7799 17.56 16.0599 18.47 17.6299C18.99 18.5399 18.68 19.6999 17.77 20.2199L16.04 21.2099C15.25 21.6799 14.23 21.3999 13.76 20.6099L13.65 20.4199C12.75 18.8499 11.27 18.8499 10.36 20.4199L10.25 20.6099C9.78 21.3999 8.76 21.6799 7.97 21.2099L6.24 20.2199C5.33 19.6999 5.02 18.5299 5.54 17.6299C6.45 16.0599 5.71 14.7799 3.9 14.7799C2.85 14.7799 2 13.9199 2 12.8799Z"  stroke-width="1.5" stroke-miterlimit="10" stroke-linecap="round" stroke-linejoin="round"/>
  </symbol>
  <symbol id="icon-timer" viewBox="0 0 24 24" fill="none">
    <path d="M20.75 13.25C20.75 18.08 16.83 22 12 22C7.17 22 3.25 18.08 3.25 13.25C3.25 8.42 7.17 4.5 12 4.5C16.83 4.5 20.75 8.42 20.75 13.25Z"  stroke-width="1.5" stroke-linecap="round" stroke-linejoin="round"/>
    <path d="M12 8V13" stroke-width="1.5" stroke-linecap="round" stroke-linejoin="round"/>
    <path d="M9 2H15"  stroke-width="1.5" stroke-miterlimit="10" stroke-linecap="round" stroke-linejoin="round"/>
  </symbol>
  <symbol id="icon-camera" viewBox="0 0 24 24" fill="none">
    <path d="M6.76 22H17.24C20 22 21.1 20.31 21.23 18.25L21.75 9.99C21.89 7.83 20.17 6 18 6C17.39 6 16.83 5.65 16.55 5.11L15.83 3.66C15.37 2.75 14.17 2 13.15 2H10.86C9.83 2 8.63 2.75 8.17 3.66L7.45 5.11C7.17 5.65 6.61 6 6 6C3.83 6 2.11 7.83 2.25 9.99L2.77 18.25C2.89 20.31 4 22 6.76 22Z"  stroke-width="1.5" stroke-linecap="round" stroke-linejoin="round"/>
    <path d="M10.5 8H13.5" stroke-width="1.5" stroke-linecap="round" stroke-linejoin="round"/>
    <path d="M12 18C13.79 18 15.25 16.54 15.25 14.75C15.25 12.96 13.79 11.5 12 11.5C10.21 11.5 8.75 12.96 8.75 14.75C8.75 16.54 10.21 18 12 18Z"  stroke-width="1.5" stroke-linecap="round" stroke-linejoin="round"/>
  </symbol>

 
  <symbol id="icon-grid" viewBox="0 0 24 24" fill="none">
    <svg width="24" height="24" viewBox="0 0 24 24" fill="none" xmlns="http://www.w3.org/2000/svg">
    <path d="M9 22H15C20 22 22 20 22 15V9C22 4 20 2 15 2H9C4 2 2 4 2 9V15C2 20 4 22 9 22Z" stroke-width="1.5" stroke-linecap="round" stroke-linejoin="round"/>
    <path d="M2.03003 8.5H22"  stroke-width="1.5" stroke-linecap="round" stroke-linejoin="round"/>
    <path d="M2.03003 15.5H22" stroke-width="1.5" stroke-linecap="round" stroke-linejoin="round"/>
    <path d="M8.51001 21.99V2.00999" stroke-width="1.5" stroke-linecap="round" stroke-linejoin="round"/>
    <path d="M15.51 21.99V2.00999" stroke-width="1.5" stroke-linecap="round" stroke-linejoin="round"/>
    </svg>
  </symbol>
  <symbol id="wave-1" width="409" height="316" viewBox="0 0 409 316" fill="none">
    <path d="M0.5 15.5V316H408.5C371.5 316 301.9 305.1 319.5 261.5C341.5 207 233 197 170.5 245.5C108 294 54.5 232 108.5 91.5C151.7 -20.9 54.5 -5.99999 0.5 15.5Z" fill="#232323"/>
  </symbol>
  <symbol id="wave-2" width="596" height="336" viewBox="0 0 596 336" fill="none">
      <path d="M596 336V0H0C59.9587 54.2474 208.164 147.019 321.317 84.1252C462.758 5.5082 551.415 65.0969 515.543 162.742C486.844 240.858 557.223 310.796 596 336Z" fill="#232323"/>
  </symbol>



</svg>
